{"title":"La.Guerre.des.Boutons.2011.DVDRip.AC3.HORiZON-ArtSubs","uid":8251277,"size":1471031045,"categoryP":"video","categoryS":"movies","magnet":"?xt=urn:btih:662d2848479373431e8952d7d9c60931d7e4c231&amp;dn=La.Guerre.des.Boutons.2011.DVDRip.AC3.HORiZON-ArtSubs&amp;tr=udp%3A%2F%2Ftracker.openbittorrent.com%3A80&amp;tr=udp%3A%2F%2Fopen.demonii.com%3A1337&amp;tr=udp%3A%2F%2Ftracker.coppersurfer.tk%3A6969&amp;tr=udp%3A%2F%2Fexodus.desync.com%3A6969","seeders":4,"leechers":0,"uploader":"artsubs","files":-1,"time":1363174130,"description":"Title: La Guerre des Boutons aka War of the Buttons\n\nPlot: In the countryside of France, two groups of boys from the rural villages of Longeverne and Velran are in constant war against each other. Their war is a tradition that passes from father to son and without a motive but the rivalry between the peasants. During the Algerian War, the Longeverne boys are led by the intelligent William Lebrac, who has been the backer of his family since his father died, while the Velrans are led by the wicked Aztec. The boys are frequently fighting with their wooden swords, throwing rotten fruits or building traps in the woods expecting to remove the buttons from the enemies' clothes. But Lebrac is coming of age and he has a crush on the girl Lanterne while his teacher Merlin offers the chance for him to have a better study in another village. (IMDB)\n\nAudio: French\n\nSubtitles: ENGLISH and BRAZILIAN PORTUGUESE\n\nIMDB: http://www.imdb.com/title/tt1861375/\n\n\nGeneral\nComplete name                    : La.Guerre.des.Boutons.2011.DVDRip.AC3.HORiZON-ArtSubs\nFormat                           : AVI\nFormat/Info                      : Audio Video Interleave\nFile size                        : 1.37 GiB\nDuration                         : 1h 49mn\nOverall bit rate                 : 1 794 Kbps\nWriting application              : FairUse Wizard - http://fairusewizard.com\nWriting library                  : The best and REALLY easy backup tool\n\nVideo\nID                               : 0\nFormat                           : MPEG-4 Visual\nFormat profile                   : Advanced Simple@L5\nFormat settings, BVOP            : Yes\nFormat settings, QPel            : No\nFormat settings, GMC             : No warppoints\nFormat settings, Matrix          : Default (H.263)\nMuxing mode                      : Packed bitstream\nCodec ID                         : XVID\nCodec ID/Hint                    : XviD\nDuration                         : 1h 49mn\nBit rate                         : 1 592 Kbps\nWidth                            : 704 pixels\nHeight                           : 384 pixels\nDisplay aspect ratio             : 16:9\nFrame rate                       : 23.976 fps\nColor space                      : YUV\nChroma subsampling               : 4:2:0\nBit depth                        : 8 bits\nScan type                        : Progressive\nCompression mode                 : Lossy\nBits/(Pixel*Frame)               : 0.246\nStream size                      : 1.22 GiB (89%)\nWriting library                  : XviD 1.1.0 (UTC 2005-11-22)\n\nAudio\nID                               : 1\nFormat                           : AC-3\nFormat/Info                      : Audio Coding 3\nMode extension                   : CM (complete main)\nCodec ID                         : 2000\nDuration                         : 1h 49mn\nBit rate mode                    : Constant\nBit rate                         : 192 Kbps\nChannel(s)                       : 2 channels\nChannel positions                : Front: L R\nSampling rate                    : 48.0 KHz\nBit depth                        : 16 bits\nCompression mode                 : Lossy\nStream size                      : 150 MiB (11%)\nAlignment                        : Split accross interleaves\nInterleave, duration             : 42 ms (1.00 video frame)\nInterleave, preload duration     : 500 ms\n","torrent":{"xt":"urn:btih:662d2848479373431e8952d7d9c60931d7e4c231","amp;dn":"La.Guerre.des.Boutons.2011.DVDRip.AC3.HORiZON-ArtSubs","amp;tr":["udp%3A%2F%2Ftracker.openbittorrent.com%3A80","udp%3A%2F%2Fopen.demonii.com%3A1337","udp%3A%2F%2Ftracker.coppersurfer.tk%3A6969","udp%3A%2F%2Fexodus.desync.com%3A6969"],"infoHash":"662d2848479373431e8952d7d9c60931d7e4c231","infoHashBuffer":{"type":"Buffer","data":[102,45,40,72,71,147,115,67,30,137,82,215,217,198,9,49,215,228,194,49]},"announce":[],"urlList":[]}}